<svg xmlns="http://www.w3.org/2000/svg" viewBox="0 0 512 512">
<defs>
  <linearGradient id="ring" x1="90" y1="420" x2="430" y2="80"><stop stop-color="#6657e8"/><stop offset=".5" stop-color="#8b6ee8"/><stop offset="1" stop-color="#f3b33f"/></linearGradient>
  <linearGradient id="needle" x1="190" y1="340" x2="340" y2="170"><stop stop-color="#6557d8"/><stop offset=".5" stop-color="#f0e9ff"/><stop offset="1" stop-color="#f2a62e"/></linearGradient>
</defs>
<rect width="512" height="512" rx="112" fill="#10172b"/>
<circle cx="256" cy="256" r="178" fill="none" stroke="url(#ring)" stroke-width="28"/>
<path d="M256 49l18 43h-36zM463 256l-43 18v-36zM256 463l-18-43h36zM49 256l43-18v36z" fill="url(#ring)"/>
<path d="M196 326l45-105 105-55-55 105z" fill="url(#needle)"/>
<circle cx="271" cy="246" r="22" fill="#10172b" stroke="#f5eadc" stroke-width="9"/>
<path d="M169 360c42-57 79-38 112-72 26-27 16-62 65-90" fill="none" stroke="url(#ring)" stroke-width="13" stroke-linecap="round"/>
<circle cx="169" cy="360" r="14" fill="#10172b" stroke="#7464e6" stroke-width="8"/>
<circle cx="346" cy="198" r="17" fill="#f3b33f" stroke="#ffe3a2" stroke-width="7"/>
</svg>